<?xml version="1.0" encoding="UTF-8"?>
<svg xmlns="http://www.w3.org/2000/svg" viewBox="0 0 504 500">
  <g id="Outer_Gauge" data-name="Outer Gauge">
    <path id="High_Rev" data-name="High Rev" d="M443.24,159.73c12.58,27.14,19.6,57.38,19.6,89.26" style="fill: none; stroke: #ed1c24; stroke-linejoin: round; stroke-width: 25px;"/>
    <path id="Normal_Rev" data-name="Normal Rev" d="M80.56,376.79c-4.1-5.43-7.94-11.07-11.5-16.88-19.8-32.29-31.21-70.27-31.21-110.92,0-58.68,23.78-111.81,62.24-150.26,38.45-38.45,91.58-62.24,150.26-62.24s111.81,23.78,150.26,62.24c17.56,17.56,32.07,38.19,42.64,61" style="fill: none; stroke: #6d6e71; stroke-linejoin: round; stroke-width: 25px;"/>
    <path id="Low_Rev" data-name="Low Rev" d="M150.57,436.66c-27.49-14.65-51.39-35.16-70.01-59.86" style="fill: none; stroke: #d1d3d4; stroke-linejoin: round; stroke-width: 25px;"/>
    <g id="Major_Ticks" data-name="Major Ticks">
      <rect x="365.2" y="91.73" width="40" height="5" transform="translate(710.09 -133.17) rotate(131.26)" style="fill: #fff;"/>
      <rect x="290.64" y="49.98" width="40" height="5" transform="translate(452.43 -228.85) rotate(107.16)" style="fill: #fff;"/>
      <rect x="28.72" y="208.12" width="40" height="5" transform="translate(40.44 -5.4) rotate(10.83)" style="fill: #fff;"/>
      <rect x="416.37" y="160.22" width="40" height="5" transform="translate(900.78 127.92) rotate(155.27)" style="fill: #fff;"/>
      <rect x="205.39" y="42.36" width="40" height="5" transform="translate(243.11 -184.27) rotate(83.17)" style="fill: #fff;"/>
      <rect x="125.55" y="70.09" width="40" height="5" transform="translate(132.72 -89.55) rotate(58.97)" style="fill: #fff;"/>
      <rect x="30.43" y="292.7" width="40" height="5" transform="translate(-65.8 19.2) rotate(-13.14)" style="fill: #fff;"/>
      <rect x="66.88" y="369.99" width="40" height="5" transform="translate(-207.95 128.83) rotate(-37.3)" style="fill: #fff;"/>
      <rect x="62.32" y="128.84" width="40" height="5" transform="translate(92.84 -23.31) rotate(35.97)" style="fill: #fff;"/>
      <rect x="435.14" y="244.17" width="40" height="5" transform="translate(909.14 495.45) rotate(-179.73)" style="fill: #fff;"/>
      <rect x="132.84" y="426.71" width="40" height="5" transform="translate(-299.27 372.9) rotate(-63.3)" style="fill: #fff;"/>
    </g>
    <g id="Minor_Ticks" data-name="Minor Ticks">
      <polygon points="25.89 268.83 40.8 267.35 41.05 270.11 26.14 271.59 25.89 268.83" style="fill: #414042;"/>
      <polygon points="25.3 237.24 40.27 237.84 40.13 240.6 25.16 240.01 25.3 237.24" style="fill: #414042;"/>
      <polygon points="37.26 175.34 51.47 180.07 50.58 182.69 36.36 177.96 37.26 175.34" style="fill: #414042;"/>
      <polygon points="49.64 146.29 63.05 152.98 61.8 155.45 48.39 148.76 49.64 146.29" style="fill: #414042;"/>
      <polyline points="457.99 219.48 457.6 216.74 472.41 214.5 472.8 217.24" style="fill: #be1e2d;"/>
      <polygon points="85.93 94.81 96.96 104.95 95.07 106.97 84.04 96.84 85.93 94.81" style="fill: #414042;"/>
      <polygon points="109.08 73.36 118.6 84.93 116.45 86.67 106.93 75.1 109.08 73.36" style="fill: #414042;"/>
      <polygon points="163.2 41.13 169.13 54.89 166.58 55.96 160.65 42.21 163.2 41.13" style="fill: #414042;"/>
      <polygon points="193.13 31.03 197.06 45.48 194.38 46.19 190.45 31.73 193.13 31.03" style="fill: #414042;"/>
      <polygon points="255.77 23.85 255.56 38.83 252.79 38.77 253.01 23.78 255.77 23.85" style="fill: #414042;"/>
      <polygon points="287.22 26.84 284.92 41.64 282.19 41.2 284.49 26.39 287.22 26.84" style="fill: #414042;"/>
      <polyline points="451.87 190.64 451.1 187.98 465.44 183.67 466.22 186.33" style="fill: #be1e2d;"/>
      <polygon points="421.74 103.41 410.42 113.22 408.62 111.11 419.95 101.3 421.74 103.41" style="fill: #414042;"/>
      <polygon points="440.41 128.86 427.83 136.99 426.35 134.66 438.93 126.52 440.41 128.86" style="fill: #414042;"/>
      <polygon points="115.84 429.41 124.65 417.29 126.88 418.94 118.07 431.05 115.84 429.41" style="fill: #414042;"/>
      <polygon points="91.89 408.85 102.3 398.07 104.28 400.01 93.87 410.79 91.89 408.85" style="fill: #414042;"/>
      <polygon points="53.69 358.78 66.67 351.3 68.03 353.71 55.05 361.19 53.69 358.78" style="fill: #414042;"/>
      <polygon points="40.2 330.23 54.11 324.65 55.12 327.22 41.21 332.8 40.2 330.23" style="fill: #414042;"/>
      <polygon points="347.31 45.85 340.97 59.43 338.48 58.23 344.81 44.66 347.31 45.85" style="fill: #414042;"/>
      <polygon points="374.74 61.49 366.56 74.04 364.25 72.51 372.43 59.96 374.74 61.49" style="fill: #414042;"/>
    </g>
  </g>
  <g id="Inner_Gauge" data-name="Inner Gauge">
    <circle id="Gear_Indicator_Outer" data-name="Gear Indicator Outer" cx="250" cy="248.77" r="37.5" style="fill: none; stroke: #fff; stroke-miterlimit: 10; stroke-width: 3px;"/>
    <path id="Needle_Ring" data-name="Needle Ring" d="M229.92,294.57c-17.62-7.73-29.92-25.33-29.92-45.8,0-27.61,22.39-50,50-50s50,22.39,50,50" style="fill: none; stroke: #fff; stroke-miterlimit: 10; stroke-width: 3px;"/>
  </g>
  <g id="Digits">
    <path d="M396.82,182.69c.22,1.42.9,2.23,2.56,2.23,2.79,0,4.01-3.21,4.59-6.18-.78,1.15-2.14,1.8-3.79,1.8-2.4,0-4.29-1.56-4.29-4.49,0-2.78,2-5.72,5.63-5.72,3.2,0,4.65,2.23,4.65,5.45s-1.12,10.82-7.01,10.82c-3.27,0-4.17-2.04-4.31-3.91h1.96ZM397.92,175.94c0,1.88,1.1,2.92,2.73,2.92,2.07,0,3.54-1.47,3.54-3.56,0-1.74-.69-3.29-2.82-3.29-2.28,0-3.45,1.97-3.45,3.93Z" style="fill: #be1e2d;"/>
    <path d="M353.09,127.05c0-2.25,1.53-3.94,3.68-4.53-.93-.44-1.83-1.52-1.83-2.97,0-2.52,1.9-4.51,5.11-4.51,2.69,0,4.33,1.53,4.33,3.74s-1.33,3.47-2.69,3.9c1.2.56,2.08,1.73,2.08,3.45,0,2.91-2.19,5.21-5.84,5.21-3.16,0-4.85-1.97-4.85-4.29ZM361.74,126.15c0-1.56-.91-2.65-2.95-2.65-2.23,0-3.64,1.55-3.64,3.4,0,1.53.99,2.78,3.02,2.78,2.23,0,3.57-1.49,3.57-3.52ZM356.92,119.57c0,1.2.79,2.23,2.53,2.23,1.97,0,2.95-1.19,2.95-2.81,0-1.21-.65-2.29-2.54-2.29s-2.94,1.15-2.94,2.87Z" style="fill: #6d6e71;"/>
    <path d="M304.87,81.54l-.35,1.7c-3.39,3.74-6.95,9.29-9.02,14.09h-2.2c2.1-5.22,6.32-10.95,9.07-14.05h-8.08l.38-1.74h10.2Z" style="fill: #6d6e71;"/>
    <path d="M175.87,391.15c0,4.2-1.68,11.25-7.03,11.25-2.87,0-4.28-2.01-4.28-5.24,0-4.07,1.84-11.07,7.07-11.07,3.09,0,4.24,2.31,4.24,5.06ZM166.64,397.13c0,2.15.7,3.55,2.45,3.55,3.46,0,4.73-6.44,4.73-9.52,0-1.99-.59-3.35-2.44-3.35-3.36,0-4.74,6.05-4.74,9.32Z" style="fill: #e6e7e8;"/>
    <path d="M114.24,160.65l.86-4.12h-7.14l.43-1.87,8.82-9.81h2.33l-2.14,9.99h2l-.58,1.69h-1.78l-.86,4.12h-1.94ZM116.44,150.43c.24-1.11.65-2.78.9-3.64-.85,1.28-5,5.79-6.96,8.06h5.09l.97-4.41Z" style="fill: #6d6e71;"/>
    <path d="M81.46,293.38l.07-.38c.56-2.51,2.36-4.55,5.84-6.87,2.7-1.83,3.97-2.43,3.97-4.66,0-1.37-.73-2.45-2.48-2.45s-2.81,1.04-3.41,3.14h-1.94c.58-2.65,2.15-4.84,5.5-4.84,3.1,0,4.4,1.99,4.4,4.1,0,2.96-1.64,3.92-4.66,5.94-2.26,1.5-3.81,2.61-4.54,4.31h8.25l-.63,1.72h-10.37Z" style="fill: #6d6e71;"/>
    <path d="M82.81,212.19c.46-1.88,1.88-4,5.09-4,3.01,0,4.31,1.74,4.31,3.69,0,2.07-1.19,3.3-2.73,3.79v.06c1.07.45,2.25,1.46,2.25,3.5,0,2.99-2.11,5.24-5.78,5.24s-4.87-2.11-4.9-4.46h2.01c.1,1.37.84,2.75,3.09,2.75s3.51-1.62,3.51-3.43-1.12-2.76-3.29-2.76h-.96l.33-1.72h.88c2.23,0,3.54-.78,3.54-2.8,0-1.36-.83-2.18-2.44-2.18s-2.44,1.04-2.91,2.32h-2Z" style="fill: #6d6e71;"/>
    <path d="M169.99,99.55h-6.51c-.4,1.44-1.07,3.78-1.37,4.67.83-.73,1.75-1.16,3.23-1.16,2.5,0,4.15,1.73,4.15,4.44,0,3.35-2.05,6.33-6.03,6.33-2.83,0-4.67-1.58-4.79-4.37h1.98c.17,1.56,1.08,2.67,2.93,2.67,2.61,0,3.83-2.19,3.83-4.37,0-1.74-.83-2.96-2.73-2.96-1.78,0-2.62.85-3.34,1.87l-1.66-.57c.57-1.64,1.7-5.54,2.44-8.3h8.51l-.65,1.74Z" style="fill: #6d6e71;"/>
    <path d="M233.22,77.77c-.1-1.04-.59-2.05-2.06-2.05-2.19,0-3.26,2.81-3.78,5.67.61-.88,1.67-1.79,3.27-1.79,2.28,0,3.55,1.89,3.55,4.6,0,3.22-1.76,6.13-4.77,6.13-2.76,0-4.03-2.29-4.03-5.62,0-3.84,1.43-10.68,5.87-10.68,2.75,0,3.56,2.09,3.61,3.74h-1.65ZM232.44,84.3c0-1.41-.46-3-2.29-3s-3.09,1.65-3.09,3.86c0,1.68.67,3.46,2.42,3.46,1.94,0,2.96-2.05,2.96-4.32Z" style="fill: #6d6e71;"/>
    <path d="M113.29,355.9l2.84-13.21c-.83.44-2.66.86-3.45.95l.38-1.67c1.68-.27,3.29-1.12,4.09-1.87h1.49l-3.36,15.79h-1.99Z" style="fill: #e6e7e8;"/>
    <g>
      <path d="M408.83,255.76l2.84-13.21c-.83.44-2.66.86-3.45.95l.38-1.67c1.68-.27,3.29-1.12,4.09-1.87h1.49l-3.36,15.79h-1.99Z" style="fill: #be1e2d;"/>
      <path d="M427.24,244.77c0,4.2-1.68,11.25-7.03,11.25-2.87,0-4.28-2.01-4.28-5.24,0-4.07,1.84-11.07,7.07-11.07,3.08,0,4.24,2.31,4.24,5.06ZM418.01,250.75c0,2.15.7,3.55,2.45,3.55,3.46,0,4.73-6.44,4.73-9.52,0-1.99-.59-3.35-2.44-3.35-3.36,0-4.74,6.05-4.74,9.32Z" style="fill: #be1e2d;"/>
    </g>
    <g>
      <path d="M423.89,272.27h1.86l-1.57,12.26c1.05-1.6,5.73-8.13,8.54-12.26h2.41l-7.55,10.69,4.72,14.36h-2.1l-4.06-12.49-2.38,3.01-1.18,9.48h-1.87l3.17-25.04Z" style="fill: #e6e7e8;"/>
      <path d="M447.67,286.64c.59-4.65,1.23-9.47,1.62-12.1h-.07c-1.06,3.85-4.83,15.07-7.39,22.78h-1.72c-.44-6.22-1.5-19.88-1.56-22.82h-.07c-.24,2.71-.94,8.5-1.48,12.79l-1.25,10.03h-1.8l3.17-25.04h2.85c.6,7.44,1.4,17.76,1.5,21.01h.04c.65-2.45,4.43-13.42,6.98-21.01h2.86l-3.17,25.04h-1.86l1.35-10.67Z" style="fill: #e6e7e8;"/>
      <path d="M450.81,298.43l8.64-26.52h1.68l-8.65,26.52h-1.67Z" style="fill: #e6e7e8;"/>
      <path d="M463.86,272.27h1.88l-1.32,10.33h7.54l1.32-10.33h1.88l-3.17,25.04h-1.88l1.52-12.05h-7.54l-1.52,12.05h-1.88l3.17-25.04Z" style="fill: #e6e7e8;"/>
    </g>
  </g>
</svg>